<svg width="30" height="30" viewBox="0 0 30 30" fill="none" xmlns="http://www.w3.org/2000/svg">
<circle cx="15" cy="15" r="15" fill="white" fill-opacity="0.9"/>
<path d="M14.5 17.625C15.6736 17.625 16.625 16.6736 16.625 15.5C16.625 14.3264 15.6736 13.375 14.5 13.375C13.3264 13.375 12.375 14.3264 12.375 15.5C12.375 16.6736 13.3264 17.625 14.5 17.625Z" fill="#C03E38"/>
<path d="M22.4366 15.3194C21.8118 13.7031 20.7271 12.3054 19.3165 11.2989C17.9059 10.2925 16.2314 9.72137 14.4998 9.65625C12.7682 9.72137 11.0936 10.2925 9.68304 11.2989C8.27247 12.3054 7.18773 13.7031 6.5629 15.3194C6.5207 15.4361 6.5207 15.5639 6.5629 15.6806C7.18773 17.2969 8.27247 18.6946 9.68304 19.7011C11.0936 20.7075 12.7682 21.2786 14.4998 21.3438C16.2314 21.2786 17.9059 20.7075 19.3165 19.7011C20.7271 18.6946 21.8118 17.2969 22.4366 15.6806C22.4788 15.5639 22.4788 15.4361 22.4366 15.3194ZM14.4998 18.9531C13.8168 18.9531 13.1492 18.7506 12.5813 18.3712C12.0135 17.9917 11.5709 17.4524 11.3095 16.8215C11.0481 16.1905 10.9798 15.4962 11.113 14.8263C11.2462 14.1565 11.5751 13.5412 12.058 13.0583C12.541 12.5753 13.1563 12.2465 13.8261 12.1132C14.4959 11.98 15.1903 12.0484 15.8212 12.3097C16.4522 12.5711 16.9915 13.0137 17.3709 13.5815C17.7504 14.1494 17.9529 14.817 17.9529 15.5C17.9515 16.4154 17.5872 17.2929 16.9399 17.9402C16.2927 18.5875 15.4152 18.9517 14.4998 18.9531Z" fill="#C03E38"/>
</svg>
