<svg width="33" height="18" viewBox="0 0 33 18" fill="none" xmlns="http://www.w3.org/2000/svg">
<path d="M24.2533 5.99667C23.4568 5.20013 22.3765 4.75265 21.25 4.75265C20.1235 4.75265 19.0432 5.20013 18.2467 5.99667C17.4501 6.7932 17.0026 7.87353 17.0026 9C17.0026 10.1265 17.4501 11.2068 18.2467 12.0033C18.6411 12.3977 19.1093 12.7106 19.6246 12.924C20.1399 13.1375 20.6922 13.2474 21.25 13.2474C21.8078 13.2474 22.3601 13.1375 22.8754 12.924C23.3907 12.7106 23.8589 12.3977 24.2533 12.0033C24.6477 11.6089 24.9606 11.1407 25.174 10.6254C25.3875 10.1101 25.4974 9.55777 25.4974 9C25.4974 8.44223 25.3875 7.88992 25.174 7.37461C24.9606 6.85929 24.6477 6.39107 24.2533 5.99667ZM9.91667 0.5V17.5H32.5833V0.5H9.91667ZM29.75 11.8333C28.9992 11.8333 28.2767 12.1308 27.7525 12.6692C27.2142 13.1933 26.9167 13.9158 26.9167 14.6667H15.5833C15.5833 13.9158 15.2858 13.1933 14.7475 12.6692C14.2233 12.1308 13.5008 11.8333 12.75 11.8333V6.16667C13.5008 6.16667 14.2233 5.86917 14.7475 5.33083C15.2858 4.80667 15.5833 4.08417 15.5833 3.33333H26.9167C26.9167 4.08417 27.2142 4.80667 27.7525 5.33083C28.2767 5.86917 28.9992 6.16667 29.75 6.16667V11.8333ZM7.08333 3.33333H4.25C3.47083 3.33333 2.83333 2.69583 2.83333 1.91667C2.83333 1.1375 3.47083 0.5 4.25 0.5H7.08333V3.33333ZM7.08333 10.4167H2.83333C2.05417 10.4167 1.41667 9.77917 1.41667 9C1.41667 8.22083 2.05417 7.58333 2.83333 7.58333H7.08333V10.4167ZM7.08333 17.5H1.41667C0.634667 17.5 0 16.8625 0 16.0833C0 15.3042 0.634667 14.6667 1.41667 14.6667H7.08333V17.5Z" fill="white"/>
</svg>
